HIERARCHY
ROOT Hips
{
	OFFSET 38.501099 -3.026736 98.751198
	CHANNELS 6 Xposition Yposition Zposition Xrotation Yrotation Zrotation
	JOINT spine
	{
		OFFSET 0.000000 -0.477352 8.301033
		CHANNELS 3 Xrotation Yrotation Zrotation
		JOINT spine1
		{
			OFFSET 0.000000 -0.000002 10.456497
			CHANNELS 3 Xrotation Yrotation Zrotation
			JOINT spine2
			{
				OFFSET 0.000000 -0.000002 10.019203
				CHANNELS 3 Xrotation Yrotation Zrotation
				JOINT Neck
				{
					OFFSET 0.000000 -1.226414 25.723503
					CHANNELS 3 Xrotation Yrotation Zrotation
					JOINT Head
					{
						OFFSET 0.000000 -0.000001 7.771744
						CHANNELS 3 Xrotation Yrotation Zrotation
						End Site
						{
							OFFSET 0.000000 6.203937 18.811996
						}
					}
				}
				JOINT RightShoulder
				{
					OFFSET -4.218800 0.587437 10.820000
					CHANNELS 3 Xrotation Yrotation Zrotation
					JOINT RightArm
					{
						OFFSET 0.000000 -0.000002 14.191406
						CHANNELS 3 Xrotation Yrotation Zrotation
						JOINT RightArmRoll
						{
							OFFSET 0.000000 -0.000001 7.164078
							CHANNELS 3 Xrotation Yrotation Zrotation
							JOINT RightForeArm
							{
								OFFSET 0.000000 -0.000003 20.866501
								CHANNELS 3 Xrotation Yrotation Zrotation
								JOINT RightForeArmRoll
								{
									OFFSET 0.000000 -0.000001 8.039215
									CHANNELS 3 Xrotation Yrotation Zrotation
									JOINT RightHand
									{
										OFFSET 0.000000 -0.000003 16.132996
										CHANNELS 3 Xrotation Yrotation Zrotation
										End Site
										{
											OFFSET 0.000000 0.000000 0.100006
										}
									}
								}
							}
						}
					}
				}
				JOINT LeftShoulder
				{
					OFFSET 4.218800 0.587437 10.820000
					CHANNELS 3 Xrotation Yrotation Zrotation
					JOINT LeftArm
					{
						OFFSET 0.000000 -0.000002 14.191406
						CHANNELS 3 Xrotation Yrotation Zrotation
						JOINT LeftArmRoll
						{
							OFFSET 0.000000 -0.000001 7.164093
							CHANNELS 3 Xrotation Yrotation Zrotation
							JOINT LeftForeArm
							{
								OFFSET 0.000000 -0.000003 20.866501
								CHANNELS 3 Xrotation Yrotation Zrotation
								JOINT LeftForeArmRoll
								{
									OFFSET 0.000000 -0.000001 8.039215
									CHANNELS 3 Xrotation Yrotation Zrotation
									JOINT LeftHand
									{
										OFFSET 0.000000 -0.000003 16.132996
										CHANNELS 3 Xrotation Yrotation Zrotation
										End Site
										{
											OFFSET 0.000000 0.000000 0.100006
										}
									}
								}
							}
						}
					}
				}
			}
		}
	}
	JOINT RightUpLeg
	{
		OFFSET -7.357731 1.131810 -1.349213
		CHANNELS 3 Xrotation Yrotation Zrotation
		JOINT RightUpLegRoll
		{
			OFFSET 0.000000 -0.000003 18.916801
			CHANNELS 3 Xrotation Yrotation Zrotation
			JOINT RightLeg
			{
				OFFSET 0.000000 0.000004 -23.425598
				CHANNELS 3 Xrotation Yrotation Zrotation
				JOINT RightLegRoll
				{
					OFFSET 0.000000 -0.000004 23.502304
					CHANNELS 3 Xrotation Yrotation Zrotation
					JOINT RightFoot
					{
						OFFSET 0.000000 -0.000003 19.561707
						CHANNELS 3 Xrotation Yrotation Zrotation
						JOINT RightToeBase
						{
							OFFSET 0.000000 -0.000003 16.352600
							CHANNELS 3 Xrotation Yrotation Zrotation
							End Site
							{
								OFFSET 0.006931 0.912836 7.919434
							}
						}
					}
				}
			}
		}
	}
	JOINT LeftUpLeg
	{
		OFFSET 7.357731 1.131810 -1.349213
		CHANNELS 3 Xrotation Yrotation Zrotation
		JOINT LeftUpLegRoll
		{
			OFFSET 0.000000 -0.000003 18.916901
			CHANNELS 3 Xrotation Yrotation Zrotation
			JOINT LeftLeg
			{
				OFFSET 0.000000 -0.000004 23.425499
				CHANNELS 3 Xrotation Yrotation Zrotation
				JOINT LeftLegRoll
				{
					OFFSET 0.000000 -0.000004 23.719498
					CHANNELS 3 Xrotation Yrotation Zrotation
					JOINT LeftFoot
					{
						OFFSET 0.000000 -0.000003 19.344406
						CHANNELS 3 Xrotation Yrotation Zrotation
						JOINT LeftToeBase
						{
							OFFSET 0.000000 -0.000003 16.352600
							CHANNELS 3 Xrotation Yrotation Zrotation
							End Site
							{
								OFFSET -0.031063 0.912836 7.919434
							}
						}
					}
				}
			}
		}
	}
}
MOTION
Frames: 9
Frame Time: 0.041667
38.684601 -4.094463 98.930702 -4.101216 -0.850563 0.558368 -1.315569 -0.013237 0.123818 1.370430 -0.023655 0.257592 3.015491 -0.020573 0.257863 24.274414 0.282210 -0.932212 -8.635535 1.115641 -0.941448 -2.765859 -76.050079 -4.962967 -80.574895 -112.687869 -58.975282 -0.000013 0.000019 -0.000002 0.110686 -13.359579 -0.161125 0.000004 0.000000 -3.038320 -5.000191 -7.998712 0.000158 10.991251 67.535169 -11.199088 -48.466589 105.037224 30.899530 -0.000001 0.000007 -0.000001 4.281994 10.319637 0.158301 0.000004 0.000000 3.010549 -5.000262 7.998773 -0.000168 2.756921 -175.362361 1.916008 179.999991 -0.000004 -1.112004 175.362921 -4.174334 -0.569281 0.000001 -0.000004 0.055712 68.906377 6.888942 2.153107 25.456959 -7.355614 0.000009 3.088751 176.362274 1.274397 -0.000005 -0.000004 -1.208960 -8.569911 2.778230 0.916670 -0.000005 -0.000001 -0.109088 68.953157 -6.930272 -2.027399 25.456959 7.355614 0.000000 
38.682999 -4.106696 98.922890 -4.103385 -0.852122 0.560735 -1.315497 -0.012226 0.123869 1.369161 -0.021062 0.257236 3.014221 -0.017990 0.257482 24.279306 0.275904 -0.934592 -8.624803 1.113834 -0.944216 -2.755662 -76.075521 -4.954352 -80.660368 -112.655153 -59.094660 -0.000012 0.000019 0.000000 0.110601 -13.408477 -0.160649 0.000004 0.000000 -3.038369 -5.000190 -7.998713 0.000158 10.998713 67.542170 -11.206145 -48.515763 105.024998 30.879111 -0.000001 0.000008 -0.000000 4.225170 10.273602 0.166857 0.000005 0.000000 3.010549 -5.000262 7.998774 -0.000168 2.760866 -175.362375 1.915757 179.999991 -0.000004 -1.112004 175.362648 -4.172345 -0.569141 0.000001 -0.000004 0.055712 68.906473 6.888913 2.153197 25.456957 -7.355615 0.000011 3.124808 176.361399 1.260026 -0.000005 -0.000004 -1.208960 -8.517312 2.792835 0.914585 -0.000006 -0.000001 -0.108014 68.917374 -6.930309 -2.029348 25.456959 7.355614 -0.000000 
38.686901 -4.104395 98.871902 -4.105515 -0.853739 0.563232 -1.315420 -0.011184 0.123946 1.367821 -0.018335 0.256905 3.012880 -0.015272 0.257126 24.283991 0.269079 -0.936995 -8.613595 1.112225 -0.947043 -2.744634 -76.102282 -4.944966 -80.749508 -112.622969 -59.214414 -0.000012 0.000019 -0.000001 0.110473 -13.454778 -0.160887 0.000003 0.000000 -3.038489 -5.000190 -7.998713 0.000158 11.005486 67.549096 -11.212434 -48.571241 105.014555 30.863992 0.000000 0.000006 -0.000001 4.162150 10.226732 0.175845 0.000003 0.000000 3.010550 -5.000262 7.998774 -0.000168 2.764828 -175.362389 1.915428 179.999991 -0.000005 -1.112005 175.362416 -4.170354 -0.568996 0.000001 -0.000004 0.055712 68.906493 6.888948 2.153102 25.456953 -7.355615 0.000010 3.162896 176.360539 1.244803 -0.000005 -0.000004 -1.208960 -8.461346 2.808336 0.912335 -0.000005 -0.000001 -0.106874 68.879377 -6.930284 -2.031624 25.456962 7.355614 0.000000 
38.686901 -4.099593 98.892197 -4.107631 -0.855396 0.565819 -1.315340 -0.010121 0.124041 1.366421 -0.015513 0.256591 3.011480 -0.012460 0.256784 24.288375 0.261890 -0.939413 -8.602062 1.110737 -0.949917 -2.733001 -76.129931 -4.935028 -80.841853 -112.591352 -59.335137 -0.000014 0.000019 -0.000001 0.110318 -13.499280 -0.161618 0.000001 0.000000 -3.038658 -5.000190 -7.998712 0.000158 11.011756 67.555967 -11.218176 -48.631476 105.005457 30.853071 0.000000 0.000008 0.000000 4.094794 10.179397 0.185082 0.000002 0.000000 3.010550 -5.000260 7.998774 -0.000168 2.768820 -175.362402 1.915040 179.999991 -0.000005 -1.112004 175.362184 -4.169347 -0.568931 0.000001 -0.000004 0.055712 68.906582 6.888917 2.153189 25.456957 -7.355615 0.000010 3.202399 176.359664 1.228989 -0.000005 -0.000004 -1.208950 -8.403023 2.824480 0.909961 -0.000005 -0.000001 -0.105687 68.839817 -6.930312 -2.033807 25.456960 7.355614 -0.000000 
38.683601 -4.102037 98.871597 -4.109730 -0.857075 0.568459 -1.315247 -0.009045 0.124144 1.364990 -0.012638 0.256287 3.010050 -0.009594 0.256454 24.292760 0.254493 -0.941838 -8.590335 1.109337 -0.952801 -2.721024 -76.158194 -4.924761 -80.936055 -112.560001 -59.456319 -0.000013 0.000019 -0.000001 0.110148 -13.542579 -0.162632 0.000003 0.000000 -3.038871 -5.000190 -7.998713 0.000158 11.017739 67.562845 -11.223613 -48.696940 104.996386 30.846992 -0.000000 0.000007 -0.000002 4.024976 10.131670 0.194415 0.000002 0.000000 3.010548 -5.000262 7.998774 -0.000167 2.772825 -175.362416 1.914634 179.999991 -0.000005 -1.112005 175.362006 -4.167356 -0.568784 0.000001 -0.000004 0.055712 68.906684 6.888924 2.153186 25.456955 -7.355614 0.000010 3.242723 176.359815 1.212890 -0.000005 -0.000004 -1.208940 -8.343359 2.840991 0.907500 -0.000006 -0.000001 -0.104474 68.799293 -6.930312 -2.036249 25.456960 7.355613 0.000001 
38.692402 -4.112484 98.875809 -4.111821 -0.858760 0.571112 -1.315160 -0.007966 0.124251 1.363560 -0.009749 0.255985 3.008620 -0.006715 0.256126 24.297046 0.247045 -0.944264 -8.578564 1.107948 -0.955703 -2.708889 -76.186450 -4.914334 -81.030830 -112.528794 -59.577759 -0.000012 0.000020 -0.000000 0.109971 -13.585677 -0.163719 0.000000 0.000000 -3.039088 -5.000190 -7.998717 0.000158 11.023678 67.569736 -11.228986 -48.760181 104.988149 30.838591 -0.000000 0.000006 0.000000 3.954554 10.083930 0.203676 0.000001 0.000000 3.010549 -5.000260 7.998774 -0.000168 2.776830 -175.361432 1.914257 179.999991 -0.000005 -1.112005 175.361801 -4.165368 -0.568638 0.000002 -0.000004 0.055712 68.906794 6.888929 2.153178 25.456957 -7.355616 0.000011 3.283255 176.358968 1.196639 -0.000005 -0.000004 -1.208930 -8.283354 2.857586 0.904992 -0.000005 -0.000001 -0.103254 68.758579 -6.930292 -2.038595 25.456960 7.355613 -0.000000 
38.691200 -4.112467 98.868797 -4.113924 -0.860434 0.573739 -1.315072 -0.006893 0.124353 1.362140 -0.006887 0.255679 3.007201 -0.003863 0.255793 24.301326 0.239699 -0.946684 -8.566873 1.106518 -0.958590 -2.696903 -76.214618 -4.904050 -81.125319 -112.497491 -59.699576 -0.000011 0.000020 -0.000001 0.109803 -13.629280 -0.164666 0.000003 0.000000 -3.039289 -5.000188 -7.998712 0.000158 11.029797 67.576717 -11.234565 -48.824193 104.979079 30.831255 0.000000 0.000007 -0.000001 3.885409 10.036353 0.212719 0.000001 0.000000 3.010549 -5.000262 7.998775 -0.000168 2.780830 -175.361432 1.913860 179.999991 -0.000005 -1.112004 175.361610 -4.164360 -0.569567 0.000002 -0.000004 0.055712 68.906896 6.888899 2.153167 25.456952 -7.355613 0.000010 3.323367 176.358121 1.180564 -0.000005 -0.000005 -1.208930 -8.224016 2.873989 0.902476 -0.000005 -0.000001 -0.102048 68.718390 -6.930299 -2.040916 25.456962 7.355613 0.000001 
38.685104 -4.116654 98.864998 -4.116040 -0.862080 0.576301 -1.314990 -0.005836 0.124442 1.360750 -0.004092 0.255360 3.005810 -0.001078 0.255448 24.305915 0.232613 -0.949093 -8.555423 1.104999 -0.961444 -2.685238 -76.241966 -4.894054 -81.218223 -112.465868 -59.821249 -0.000014 0.000020 -0.000000 0.109656 -13.674278 -0.165256 0.000002 0.000000 -3.039451 -5.000192 -7.998714 0.000158 11.036204 67.583568 -11.240453 -48.883770 104.969339 30.819866 -0.000001 0.000007 -0.000000 3.819383 9.989116 0.221402 0.000002 0.000000 3.010550 -5.000260 7.998775 -0.000169 2.784816 -175.361460 1.913493 179.999991 -0.000004 -1.112004 175.361378 -4.162370 -0.569424 0.000001 -0.000004 0.055712 68.906903 6.888936 2.153174 25.456953 -7.355614 0.000010 3.362482 176.357274 1.164911 -0.000005 -0.000004 -1.208920 -8.166369 2.889946 0.900002 -0.000005 -0.000001 -0.100874 68.679273 -6.930295 -2.043167 25.456959 7.355613 0.000001 
38.687599 -4.119189 98.868301 -4.118178 -0.863681 0.578757 -1.314907 -0.004803 0.124511 1.359430 -0.001405 0.255022 3.004491 0.001600 0.255085 24.310604 0.225940 -0.951482 -8.544372 1.103310 -0.964246 -2.674189 -76.268310 -4.884625 -81.308279 -112.433895 -59.942758 -0.000011 0.000019 0.000000 0.109538 -13.721377 -0.165279 0.000004 0.000001 -3.039540 -5.000190 -7.998713 0.000159 11.043227 67.590582 -11.247027 -48.938200 104.958267 30.803989 0.000000 0.000006 -0.000001 3.758355 9.942421 0.229592 0.000002 0.000000 3.010550 -5.000261 7.998773 -0.000168 2.788781 -175.361473 1.913183 179.999991 -0.000005 -1.112004 175.361118 -4.160380 -0.569281 0.000001 -0.000004 0.055712 68.906999 6.888907 2.153163 25.456957 -7.355614 0.000010 3.399950 176.357410 1.150001 -0.000005 -0.000004 -1.208920 -8.111405 2.905163 0.897612 -0.000004 -0.000001 -0.099754 68.641946 -6.930301 -2.045306 25.456962 7.355613 0.000000 
